<!DOCTYPE svg PUBLIC "-//W3C//DTD SVG 1.1//EN" "https://www.w3.org/Graphics/SVG/1.1/DTD/svg11.dtd"><svg xmlns="http://www.w3.org/2000/svg" aria-label="Graph view" width="416" height="1097"><g transform="translate(12,19.360000610351562)"><g class="nodes"><g class="node-container" transform="translate(165.75999927520752,18.639999389648438)"><g class="node anchor"><circle class="shape" x="-16" y="-8.639999389648438" r="26"/><text class="label"><tspan xml:space="preserve" text-anchor="middle" alignment-baseline="central">Start</tspan></text></g></g><g class="node-container" transform="translate(165.75999927520752,1042.8399810791016)"><g class="node anchor"><circle class="shape" x="-12.15999984741211" y="-8.639999389648438" r="22.15999984741211"/><text class="label"><tspan xml:space="preserve" text-anchor="middle" alignment-baseline="central">End</tspan></text></g></g><g class="node-container" transform="translate(165.75999927520752,80.91999816894531)"><g class="node state Task SucceededState" aria-label="State Get Organization Root" data-virtual-tab-id="19" tabindex="0" transform="translate(-8)"><rect class="shape step-status" rx="5" ry="5" x="-82" y="-18.639999389648438" width="180" height="37.279998779296875"/><text class="label" xml:space="preserve" text-anchor="middle" alignment-baseline="central">Get Organization Root</text><svg class="icon" width="16" height="16" x="77" y="-8"><circle stroke="black" stroke-width="1" fill="none" cx="8" cy="8" r="7"/><path stroke="black" stroke-width="1" fill="none" d="m5 8 2 2 3.521-3.521"/></svg></g></g><g class="node-container" transform="translate(165.75999927520752,143.1999969482422)"><g class="node state Task CaughtErrorState" aria-label="State Create New Organizational Unit" data-virtual-tab-id="20" tabindex="-1" transform="translate(-8)"><rect class="shape step-status" rx="5" ry="5" x="-112.39999389648438" y="-18.639999389648438" width="240.79998779296875" height="37.279998779296875"/><text class="label" xml:space="preserve" text-anchor="middle" alignment-baseline="central">Create New Organizational Unit</text><svg class="icon" width="16" height="16" x="107.39999389648438" y="-8"><path stroke="black" stroke-width="1" fill="none" d="m8 1 7 14H1L8 1z"/><path stroke="black" stroke-width="1" fill="none" d="M7.99 12H8v.01h-.01zM8 6v4"/></svg></g></g><g class="node-container" transform="translate(165.75999927520752,544.5999908447266)"><g class="node state Task SucceededState" aria-label="State Create New Account" data-virtual-tab-id="21" tabindex="-1" transform="translate(-8)"><rect class="shape step-status" rx="5" ry="5" x="-74.95999908447266" y="-18.639999389648438" width="165.9199981689453" height="37.279998779296875"/><text class="label" xml:space="preserve" text-anchor="middle" alignment-baseline="central">Create New Account</text><svg class="icon" width="16" height="16" x="69.95999908447266" y="-8"><circle stroke="black" stroke-width="1" fill="none" cx="8" cy="8" r="7"/><path stroke="black" stroke-width="1" fill="none" d="m5 8 2 2 3.521-3.521"/></svg></g></g><g class="node-container" transform="translate(252.81999683380127,205.47999572753906)"><g class="node state Task SucceededState" aria-label="State List Organizational Units" data-virtual-tab-id="22" tabindex="-1" transform="translate(-8)"><rect class="shape step-status" rx="5" ry="5" x="-89.36000061035156" y="-18.639999389648438" width="194.72000122070312" height="37.279998779296875"/><text class="label" xml:space="preserve" text-anchor="middle" alignment-baseline="central">List Organizational Units</text><svg class="icon" width="16" height="16" x="84.36000061035156" y="-8"><circle stroke="black" stroke-width="1" fill="none" cx="8" cy="8" r="7"/><path stroke="black" stroke-width="1" fill="none" d="m5 8 2 2 3.521-3.521"/></svg></g></g><g class="node-container" transform="translate(165.75999927520752,606.8799896240234)"><g class="node state Wait SucceededState" aria-label="State Wait 30 Sec" data-virtual-tab-id="23" tabindex="-1" transform="translate(-8)"><rect class="shape step-status" rx="5" ry="5" x="-47.7599983215332" y="-18.639999389648438" width="111.5199966430664" height="37.279998779296875"/><text class="label" xml:space="preserve" text-anchor="middle" alignment-baseline="central">Wait 30 Sec</text><svg class="icon" width="16" height="16" x="42.7599983215332" y="-8"><circle stroke="black" stroke-width="1" fill="none" cx="8" cy="8" r="7"/><path stroke="black" stroke-width="1" fill="none" d="m5 8 2 2 3.521-3.521"/></svg></g></g><g class="node-container" transform="translate(107.09999942779541,669.1599884033203)"><g class="node state Task SucceededState" aria-label="State New Account Status" data-virtual-tab-id="24" tabindex="-1" transform="translate(-8)"><rect class="shape step-status" rx="5" ry="5" x="-74.31999969482422" y="-18.639999389648438" width="164.63999938964844" height="37.279998779296875"/><text class="label" xml:space="preserve" text-anchor="middle" alignment-baseline="central">New Account Status</text><svg class="icon" width="16" height="16" x="69.31999969482422" y="-8"><circle stroke="black" stroke-width="1" fill="none" cx="8" cy="8" r="7"/><path stroke="black" stroke-width="1" fill="none" d="m5 8 2 2 3.521-3.521"/></svg></g></g><g class="node-container" transform="translate(165.75999927520752,731.4399871826172)"><g class="node state Choice SucceededState" aria-label="State Check Account Status" data-virtual-tab-id="25" tabindex="-1" transform="translate(-8)"><rect class="shape step-status" rx="5" ry="5" x="-79.1199951171875" y="-18.639999389648438" width="174.239990234375" height="37.279998779296875"/><text class="label" xml:space="preserve" text-anchor="middle" alignment-baseline="central">Check Account Status</text><svg class="icon" width="16" height="16" x="74.1199951171875" y="-8"><circle stroke="black" stroke-width="1" fill="none" cx="8" cy="8" r="7"/><path stroke="black" stroke-width="1" fill="none" d="m5 8 2 2 3.521-3.521"/></svg></g></g><g class="node-container" transform="translate(233.51999855041504,980.5599822998047)"><g class="node state Fail NotYetStarted" aria-label="State Failed" data-virtual-tab-id="26" tabindex="-1" transform="translate(-8)"><rect class="shape step-status" rx="5" ry="5" x="-29.19999885559082" y="-18.639999389648438" width="74.39999771118164" height="37.279998779296875"/><text class="label" xml:space="preserve" text-anchor="middle" alignment-baseline="central">Failed</text><svg class="icon" width="16" height="16" x="24.19999885559082" y="-8"/></g></g><g class="node-container" transform="translate(98,793.7199859619141)"><g class="node state Task SucceededState" aria-label="State Move Account To OU" data-virtual-tab-id="27" tabindex="-1" transform="translate(-8)"><rect class="shape step-status" rx="5" ry="5" x="-77.5199966430664" y="-18.639999389648438" width="171.0399932861328" height="37.279998779296875"/><text class="label" xml:space="preserve" text-anchor="middle" alignment-baseline="central">Move Account To OU</text><svg class="icon" width="16" height="16" x="72.5199966430664" y="-8"><circle stroke="black" stroke-width="1" fill="none" cx="8" cy="8" r="7"/><path stroke="black" stroke-width="1" fill="none" d="m5 8 2 2 3.521-3.521"/></svg></g></g><g class="node-container" transform="translate(98,855.9999847412109)"><g class="node state Pass SucceededState" aria-label="State New Account Credentials" data-virtual-tab-id="28" tabindex="-1" transform="translate(-8)"><rect class="shape step-status" rx="5" ry="5" x="-90" y="-18.639999389648438" width="196" height="37.279998779296875"/><text class="label" xml:space="preserve" text-anchor="middle" alignment-baseline="central">New Account Credentials</text><svg class="icon" width="16" height="16" x="85" y="-8"><circle stroke="black" stroke-width="1" fill="none" cx="8" cy="8" r="7"/><path stroke="black" stroke-width="1" fill="none" d="m5 8 2 2 3.521-3.521"/></svg></g></g><g class="node-container" transform="translate(98,918.2799835205078)"><g class="node state Wait SucceededState" aria-label="State Wait 30 Seconds" data-virtual-tab-id="29" tabindex="-1" transform="translate(-8)"><rect class="shape step-status" rx="5" ry="5" x="-63.119998931884766" y="-18.639999389648438" width="142.23999786376953" height="37.279998779296875"/><text class="label" xml:space="preserve" text-anchor="middle" alignment-baseline="central">Wait 30 Seconds</text><svg class="icon" width="16" height="16" x="58.119998931884766" y="-8"><circle stroke="black" stroke-width="1" fill="none" cx="8" cy="8" r="7"/><path stroke="black" stroke-width="1" fill="none" d="m5 8 2 2 3.521-3.521"/></svg></g></g><g class="node-container" transform="translate(98,980.5599822998047)"><g class="node state Task FailedState" aria-label="State Create Stack" data-virtual-tab-id="30" tabindex="-1" transform="translate(-8)"><rect class="shape step-status" rx="5" ry="5" x="-50.31999969482422" y="-18.639999389648438" width="116.63999938964844" height="37.279998779296875"/><text class="label" xml:space="preserve" text-anchor="middle" alignment-baseline="central">Create Stack</text><svg class="icon" width="16" height="16" x="45.31999969482422" y="-8"><circle stroke="black" stroke-width="1" fill="none" cx="8" cy="8" r="7"/><path stroke="black" stroke-width="1" fill="none" d="m10.828 5.172-5.656 5.656M10.828 10.828 5.172 5.172"/></svg></g></g><g class="node-container" transform="translate(252.81999683380127,343.8999938964844)"><g class="node state Map Container SucceededState" aria-label="State Loop over all OUs" data-virtual-tab-id="31" tabindex="-1" transform="translate(-129.1199951171875,-94.77999877929688)"><rect class="shape" rx="5" ry="5" width="278.239990234375" height="179.55999755859375" transform="translate(-14,6)"/><rect class="shape" rx="5" ry="5" width="278.239990234375" height="179.55999755859375" transform="translate(-12,8)"/><rect class="shape" rx="5" ry="5" width="278.239990234375" height="179.55999755859375" transform="translate(-10,10)"/><g class="branches" transform="translate(20,70)"><g class="branch" transform="translate(0, 0)"><g class="nodes"><g class="node-container" transform="translate(114.8799991607666,18.639999389648438)"><g class="node state Choice SucceededState" aria-label="State Is this the OU?" data-virtual-tab-id="32" tabindex="-1" transform="translate(-8)"><rect class="shape step-status" rx="5" ry="5" x="-56.07999801635742" y="-18.639999389648438" width="128.15999603271484" height="37.279998779296875"/><text class="label" xml:space="preserve" text-anchor="middle" alignment-baseline="central">Is this the OU?</text><svg class="icon" width="16" height="16" x="51.07999801635742" y="-8"><circle stroke="black" stroke-width="1" fill="none" cx="8" cy="8" r="7"/><path stroke="black" stroke-width="1" fill="none" d="m5 8 2 2 3.521-3.521"/></svg></g></g><g class="node-container" transform="translate(50.31999969482422,80.91999816894531)"><g class="node state Pass NotYetStarted" aria-label="State Get OU ID" data-virtual-tab-id="33" tabindex="-1" transform="translate(-8)"><rect class="shape step-status" rx="5" ry="5" x="-42.31999969482422" y="-18.639999389648438" width="100.63999938964844" height="37.279998779296875"/><text class="label" xml:space="preserve" text-anchor="middle" alignment-baseline="central">Get OU ID</text><svg class="icon" width="16" height="16" x="37.31999969482422" y="-8"/></g></g><g class="node-container" transform="translate(179.43999862670898,80.91999816894531)"><g class="node state Pass SucceededState" aria-label="State Ignore" data-virtual-tab-id="34" tabindex="-1" transform="translate(-8)"><rect class="shape step-status" rx="5" ry="5" x="-30.799999237060547" y="-18.639999389648438" width="77.5999984741211" height="37.279998779296875"/><text class="label" xml:space="preserve" text-anchor="middle" alignment-baseline="central">Ignore</text><svg class="icon" width="16" height="16" x="25.799999237060547" y="-8"><circle stroke="black" stroke-width="1" fill="none" cx="8" cy="8" r="7"/><path stroke="black" stroke-width="1" fill="none" d="m5 8 2 2 3.521-3.521"/></svg></g></g></g><g class="edges"><g class="edge"><path class="path" marker-end="url(#arrowhead23)" d="M76.235,37.28L71.916,39.363C67.597,41.447,58.958,45.613,54.639,49.78C50.32,53.947,50.32,58.113,50.32,60.197L50.32,62.28" style="fill: none;"/><defs><marker id="arrowhead23" viewBox="0 0 10 10" refX="9" refY="5" markerUnits="strokeWidth" markerWidth="8" markerHeight="6" orient="auto"><path d="M 0 0 L 10 5 L 0 10 z"/></marker></defs></g><g class="edge"><path class="path" marker-end="url(#arrowhead24)" d="M153.525,37.28L157.844,39.363C162.163,41.447,170.802,45.613,175.121,49.78C179.44,53.947,179.44,58.113,179.44,60.197L179.44,62.28" style="fill: none;"/><defs><marker id="arrowhead24" viewBox="0 0 10 10" refX="9" refY="5" markerUnits="strokeWidth" markerWidth="8" markerHeight="6" orient="auto"><path d="M 0 0 L 10 5 L 0 10 z"/></marker></defs></g></g></g></g><path class="path" marker-end="url(#arrowhead25)" d="M129.12,0L129.12,1.667C129.12,3.333,129.12,6.667,130.08,12.5C131.04,18.333,132.96,26.667,133.92,36.667C134.88,46.667,134.88,58.333,134.88,64.167L134.88,70" style="fill: none;"/><defs><marker id="arrowhead25" viewBox="0 0 10 10" refX="9" refY="5" markerUnits="strokeWidth" markerWidth="8" markerHeight="6" orient="auto"><path d="M 0 0 L 10 5 L 0 10 z"/></marker></defs><g class="title node state SucceededState"><rect class="shape step-status" rx="5" ry="5" x="0" y="0" width="258.239990234375" height="40" transform="translate(0)"/><text class="label" xml:space="preserve" text-anchor="middle" alignment-baseline="central" font-weight="600" x="258.239990234375" y="10" transform="translate(-137.1199951171875)">Loop over all OUs</text><text class="desciption" xml:space="preserve" text-anchor="middle" alignment-baseline="central" x="258.239990234375" y="30" transform="translate(-129.1199951171875)">Iteration #2</text><svg class="icon" width="16" height="16" xml:space="preserve" text-anchor="middle" alignment-baseline="central" x="188.63999557495117" y="3"><circle stroke="black" stroke-width="1" fill="none" cx="8" cy="8" r="7"/><path stroke="black" stroke-width="1" fill="none" d="m5 8 2 2 3.521-3.521"/></svg></g></g></g><g class="node-container" transform="translate(252.81999683380127,482.3199920654297)"><g class="node state Pass SucceededState" aria-label="State Get The OU Details" data-virtual-tab-id="35" tabindex="-1" transform="translate(-8)"><rect class="shape step-status" rx="5" ry="5" x="-71.43999862670898" y="-18.639999389648438" width="158.87999725341797" height="37.279998779296875"/><text class="label" xml:space="preserve" text-anchor="middle" alignment-baseline="central">Get The OU Details</text><svg class="icon" width="16" height="16" x="66.43999862670898" y="-8"><circle stroke="black" stroke-width="1" fill="none" cx="8" cy="8" r="7"/><path stroke="black" stroke-width="1" fill="none" d="m5 8 2 2 3.521-3.521"/></svg></g></g></g><g class="edges"><g class="edge"><path class="path" marker-end="url(#arrowhead26)" d="M165.76,99.56L165.76,101.643C165.76,103.727,165.76,107.893,165.76,112.06C165.76,116.227,165.76,120.393,165.76,122.477L165.76,124.56" style="fill: none;"/><defs><marker id="arrowhead26" viewBox="0 0 10 10" refX="9" refY="5" markerUnits="strokeWidth" markerWidth="8" markerHeight="6" orient="auto"><path d="M 0 0 L 10 5 L 0 10 z"/></marker></defs></g><g class="edge"><path class="path" marker-end="url(#arrowhead27)" d="M165.76,44.64L165.76,45.497C165.76,46.353,165.76,48.067,165.76,51.007C165.76,53.947,165.76,58.113,165.76,60.197L165.76,62.28" style="fill: none;"/><defs><marker id="arrowhead27" viewBox="0 0 10 10" refX="9" refY="5" markerUnits="strokeWidth" markerWidth="8" markerHeight="6" orient="auto"><path d="M 0 0 L 10 5 L 0 10 z"/></marker></defs></g><g class="edge"><path class="path" marker-end="url(#arrowhead28)" d="M113.647,161.84L107.823,163.923C101.998,166.007,90.349,170.173,84.525,177.447C78.7,184.72,78.7,195.1,78.7,205.48C78.7,215.86,78.7,226.24,78.7,249.31C78.7,272.38,78.7,308.14,78.7,343.9C78.7,379.66,78.7,415.42,78.7,438.49C78.7,461.56,78.7,471.94,78.7,482.32C78.7,492.7,78.7,503.08,84.525,510.353C90.349,517.627,101.998,521.793,107.823,523.877L113.647,525.96" style="fill: none;"/><defs><marker id="arrowhead28" viewBox="0 0 10 10" refX="9" refY="5" markerUnits="strokeWidth" markerWidth="8" markerHeight="6" orient="auto"><path d="M 0 0 L 10 5 L 0 10 z"/></marker></defs></g><g class="edge"><path class="path" marker-end="url(#arrowhead29)" d="M217.873,161.84L223.697,163.923C229.522,166.007,241.171,170.173,246.995,174.34C252.82,178.507,252.82,182.673,252.82,184.757L252.82,186.84" style="fill: none;"/><defs><marker id="arrowhead29" viewBox="0 0 10 10" refX="9" refY="5" markerUnits="strokeWidth" markerWidth="8" markerHeight="6" orient="auto"><path d="M 0 0 L 10 5 L 0 10 z"/></marker></defs></g><g class="edge"><path class="path" marker-end="url(#arrowhead30)" d="M165.76,563.24L165.76,565.323C165.76,567.407,165.76,571.573,165.76,575.74C165.76,579.907,165.76,584.073,165.76,586.157L165.76,588.24" style="fill: none;"/><defs><marker id="arrowhead30" viewBox="0 0 10 10" refX="9" refY="5" markerUnits="strokeWidth" markerWidth="8" markerHeight="6" orient="auto"><path d="M 0 0 L 10 5 L 0 10 z"/></marker></defs></g><g class="edge"><path class="path" marker-end="url(#arrowhead31)" d="M130.647,625.52L126.722,627.603C122.798,629.687,114.949,633.853,111.024,638.02C107.1,642.187,107.1,646.353,107.1,648.437L107.1,650.52" style="fill: none;"/><defs><marker id="arrowhead31" viewBox="0 0 10 10" refX="9" refY="5" markerUnits="strokeWidth" markerWidth="8" markerHeight="6" orient="auto"><path d="M 0 0 L 10 5 L 0 10 z"/></marker></defs></g><g class="edge"><path class="path" marker-end="url(#arrowhead32)" d="M107.1,687.8L107.1,689.883C107.1,691.967,107.1,696.133,111.024,700.3C114.949,704.467,122.798,708.633,126.722,710.717L130.647,712.8" style="fill: none;"/><defs><marker id="arrowhead32" viewBox="0 0 10 10" refX="9" refY="5" markerUnits="strokeWidth" markerWidth="8" markerHeight="6" orient="auto"><path d="M 0 0 L 10 5 L 0 10 z"/></marker></defs></g><g class="edge"><path class="path" marker-end="url(#arrowhead33)" d="M200.873,712.8L204.798,710.717C208.722,708.633,216.571,704.467,220.496,697.193C224.42,689.92,224.42,679.54,224.42,669.16C224.42,658.78,224.42,648.4,220.496,641.127C216.571,633.853,208.722,629.687,204.798,627.603L200.873,625.52" style="fill: none;"/><defs><marker id="arrowhead33" viewBox="0 0 10 10" refX="9" refY="5" markerUnits="strokeWidth" markerWidth="8" markerHeight="6" orient="auto"><path d="M 0 0 L 10 5 L 0 10 z"/></marker></defs></g><g class="edge"><path class="path" marker-end="url(#arrowhead34)" d="M206.32,750.08L210.854,752.163C215.387,754.247,224.453,758.413,228.987,765.687C233.52,772.96,233.52,783.34,233.52,793.72C233.52,804.1,233.52,814.48,233.52,824.86C233.52,835.24,233.52,845.62,233.52,856C233.52,866.38,233.52,876.76,233.52,887.14C233.52,897.52,233.52,907.9,233.52,918.28C233.52,928.66,233.52,939.04,233.52,946.313C233.52,953.587,233.52,957.753,233.52,959.837L233.52,961.92" style="fill: none;"/><defs><marker id="arrowhead34" viewBox="0 0 10 10" refX="9" refY="5" markerUnits="strokeWidth" markerWidth="8" markerHeight="6" orient="auto"><path d="M 0 0 L 10 5 L 0 10 z"/></marker></defs></g><g class="edge"><path class="path" marker-end="url(#arrowhead35)" d="M125.2,750.08L120.666,752.163C116.133,754.247,107.067,758.413,102.533,762.58C98,766.747,98,770.913,98,772.997L98,775.08" style="fill: none;"/><defs><marker id="arrowhead35" viewBox="0 0 10 10" refX="9" refY="5" markerUnits="strokeWidth" markerWidth="8" markerHeight="6" orient="auto"><path d="M 0 0 L 10 5 L 0 10 z"/></marker></defs></g><g class="edge"><path class="path" marker-end="url(#arrowhead36)" d="M98,812.36L98,814.443C98,816.527,98,820.693,98,824.86C98,829.027,98,833.193,98,835.277L98,837.36" style="fill: none;"/><defs><marker id="arrowhead36" viewBox="0 0 10 10" refX="9" refY="5" markerUnits="strokeWidth" markerWidth="8" markerHeight="6" orient="auto"><path d="M 0 0 L 10 5 L 0 10 z"/></marker></defs></g><g class="edge"><path class="path" marker-end="url(#arrowhead37)" d="M98,874.64L98,876.723C98,878.807,98,882.973,98,887.14C98,891.307,98,895.473,98,897.557L98,899.64" style="fill: none;"/><defs><marker id="arrowhead37" viewBox="0 0 10 10" refX="9" refY="5" markerUnits="strokeWidth" markerWidth="8" markerHeight="6" orient="auto"><path d="M 0 0 L 10 5 L 0 10 z"/></marker></defs></g><g class="edge"><path class="path" marker-end="url(#arrowhead38)" d="M98,936.92L98,939.003C98,941.087,98,945.253,98,949.42C98,953.587,98,957.753,98,959.837L98,961.92" style="fill: none;"/><defs><marker id="arrowhead38" viewBox="0 0 10 10" refX="9" refY="5" markerUnits="strokeWidth" markerWidth="8" markerHeight="6" orient="auto"><path d="M 0 0 L 10 5 L 0 10 z"/></marker></defs></g><g class="edge"><path class="path" marker-end="url(#arrowhead39)" d="M98,999.2L98,1001.283C98,1003.367,98,1007.533,105.937,1013.264C113.875,1018.995,129.75,1026.291,137.687,1029.939L145.625,1033.586" style="fill: none;"/><defs><marker id="arrowhead39" viewBox="0 0 10 10" refX="9" refY="5" markerUnits="strokeWidth" markerWidth="8" markerHeight="6" orient="auto"><path d="M 0 0 L 10 5 L 0 10 z"/></marker></defs></g><g class="edge"><path class="path" marker-end="url(#arrowhead40)" d="M252.82,224.12L252.82,226.203C252.82,228.287,252.82,232.453,252.82,236.62C252.82,240.787,252.82,244.953,252.82,247.037L252.82,249.12" style="fill: none;"/></g><g class="edge"><path class="path" marker-end="url(#arrowhead41)" d="M252.82,438.68L252.82,440.763C252.82,442.847,252.82,447.013,252.82,451.18C252.82,455.347,252.82,459.513,252.82,461.597L252.82,463.68" style="fill: none;"/><defs><marker id="arrowhead41" viewBox="0 0 10 10" refX="9" refY="5" markerUnits="strokeWidth" markerWidth="8" markerHeight="6" orient="auto"><path d="M 0 0 L 10 5 L 0 10 z"/></marker></defs></g><g class="edge"><path class="path" marker-end="url(#arrowhead42)" d="M252.82,500.96L252.82,503.043C252.82,505.127,252.82,509.293,246.995,513.46C241.171,517.627,229.522,521.793,223.697,523.877L217.873,525.96" style="fill: none;"/><defs><marker id="arrowhead42" viewBox="0 0 10 10" refX="9" refY="5" markerUnits="strokeWidth" markerWidth="8" markerHeight="6" orient="auto"><path d="M 0 0 L 10 5 L 0 10 z"/></marker></defs></g><g class="edge"><path class="path" marker-end="url(#arrowhead43)" d="M233.52,999.2L233.52,1001.283C233.52,1003.367,233.52,1007.533,225.583,1013.264C217.645,1018.995,201.77,1026.291,193.833,1029.939L185.895,1033.586" style="fill: none;"/><defs><marker id="arrowhead43" viewBox="0 0 10 10" refX="9" refY="5" markerUnits="strokeWidth" markerWidth="8" markerHeight="6" orient="auto"><path d="M 0 0 L 10 5 L 0 10 z"/></marker></defs></g></g></g><style xmlns="http://www.w3.org/1999/xhtml">
  .link &gt; rect {
    fill: #0073BB;
  }

  .link .label {
    fill: #FFFFFF;
  }

  .node &gt; .shape {
    stroke: #555555;
    stroke-width: 0.6px;
    fill: #FFFFFF;
  }

  path {
    stroke: #555;
    background-color: #555;
    stroke-width: 1px;
  }

  .node.state.NotYetStarted &gt; .shape,
  .node.state.Container &gt; .shape {
    stroke-dasharray: 5 2;
  }

  .node.state.FailedState &gt; .shape,
  rect.legend.FailedState {
    fill: #DE322F;
  }

  .node.state.CaughtErrorState &gt; .shape,
  rect.legend.CaughtErrorState {
    fill: #FFA500;
  }

  .node.state.SucceededState &gt; .shape,
  rect.legend.SucceededState {
    fill: #2BD62E;
  }

  .node.state.InProgressState &gt; .shape,
  rect.legend.InProgressState {
    fill: #53c9ed;
  }

  .node.state.CancelledState &gt; .shape,
  rect.legend.CancelledState {
    fill: #dddddd;
  }

  .node.anchor &gt; .shape {
    fill: #FFDA75;
  }

  .node.state.hovered:not(.selected):not(.NotYetStarted) &gt; .shape,
  .node.selected &gt; .shape {
    stroke: #555555;
    stroke-width: 2px;
  }

  .node.state.Container.Failed &gt; .shape {
    fill: #EE9592;
  }

  .node.state.Container.CaughtError &gt; .shape {
    fill: #FFD27F;
  }

  .node.state.Container.Succeeded &gt; .shape {
    fill: #91EA9A;
  }

  .node.state.Container.InProgress &gt; .shape {
    fill :#A9E4F7;
  }

  .node.state.Container.Cancelled &gt; .shape {
    fill: #EEEEEE;
  }

  marker {
    fill: #555555;
  }

  .node.anchor,
  .node.state.NotYetStarted {
    cursor: default;
  }

  .node.state {
    cursor: default;
  }

  tspan .label {
    font-weight: normal;
    font-size: 12px;
    text-shadow: none;
  }
</style></svg>