<!DOCTYPE svg PUBLIC "-//W3C//DTD SVG 1.1//EN" "https://www.w3.org/Graphics/SVG/1.1/DTD/svg11.dtd"><svg xmlns="http://www.w3.org/2000/svg" aria-label="Graph view" width="421" height="1164"><g transform="translate(12,19.180986404418945)"><g class="nodes"><g class="node-container" transform="translate(171.17831707000732,18.800000190734863)"><g class="node anchor"><circle class="shape" x="-15.980987548828125" y="-8.800000190734863" r="25.980987548828125"/><text class="label"><tspan xml:space="preserve" text-anchor="middle" alignment-baseline="central">Start</tspan></text></g></g><g class="node-container" transform="translate(171.17831707000732,1110.4000024795532)"><g class="node anchor"><circle class="shape" x="-12.175000190734863" y="-8.800000190734863" r="22.175000190734863"/><text class="label"><tspan xml:space="preserve" text-anchor="middle" alignment-baseline="central">End</tspan></text></g></g><g class="node-container" transform="translate(171.17831707000732,81.40000057220459)"><g class="node state Task" aria-label="State Get Organization Root" data-virtual-tab-id="45" tabindex="0" transform="translate(-8)"><rect class="shape step-status" rx="5" ry="5" x="-81.32994079589844" y="-18.800000190734863" width="178.65988159179688" height="37.60000038146973"/><text class="label" xml:space="preserve" text-anchor="middle" alignment-baseline="central">Get Organization Root</text><svg class="icon" width="16" height="16" x="76.32994079589844" y="-8"/></g></g><g class="node-container" transform="translate(171.17831707000732,144.00000095367432)"><g class="node state Task" aria-label="State Create New Organizational Unit" data-virtual-tab-id="46" tabindex="-1" transform="translate(-8)"><rect class="shape step-status" rx="5" ry="5" x="-110.77191162109375" y="-18.800000190734863" width="237.5438232421875" height="37.60000038146973"/><text class="label" xml:space="preserve" text-anchor="middle" alignment-baseline="central">Create New Organizational Unit</text><svg class="icon" width="16" height="16" x="105.77191162109375" y="-8"/></g></g><g class="node-container" transform="translate(171.17831707000732,546.9999990463257)"><g class="node state Task" aria-label="State Create New Account" data-virtual-tab-id="47" tabindex="-1" transform="translate(-8)"><rect class="shape step-status" rx="5" ry="5" x="-73.9869499206543" y="-18.800000190734863" width="163.9738998413086" height="37.60000038146973"/><text class="label" xml:space="preserve" text-anchor="middle" alignment-baseline="central">Create New Account</text><svg class="icon" width="16" height="16" x="68.9869499206543" y="-8"/></g></g><g class="node-container" transform="translate(257.92206859588623,206.60000133514404)"><g class="node state Task" aria-label="State List Organizational Units" data-virtual-tab-id="48" tabindex="-1" transform="translate(-8)"><rect class="shape step-status" rx="5" ry="5" x="-88.52693939208984" y="-18.800000190734863" width="193.0538787841797" height="37.60000038146973"/><text class="label" xml:space="preserve" text-anchor="middle" alignment-baseline="central">List Organizational Units</text><svg class="icon" width="16" height="16" x="83.52693939208984" y="-8"/></g></g><g class="node-container" transform="translate(171.17831707000732,609.5999994277954)"><g class="node state Wait" aria-label="State Wait 30 Sec" data-virtual-tab-id="49" tabindex="-1" transform="translate(-8)"><rect class="shape step-status" rx="5" ry="5" x="-47.275001525878906" y="-18.800000190734863" width="110.55000305175781" height="37.60000038146973"/><text class="label" xml:space="preserve" text-anchor="middle" alignment-baseline="central">Wait 30 Sec</text><svg class="icon" width="16" height="16" x="42.275001525878906" y="-8"/></g></g><g class="node-container" transform="translate(112.89433765411377,672.1999998092651)"><g class="node state Task" aria-label="State New Account Status" data-virtual-tab-id="50" tabindex="-1" transform="translate(-8)"><rect class="shape step-status" rx="5" ry="5" x="-73.56795883178711" y="-18.800000190734863" width="163.13591766357422" height="37.60000038146973"/><text class="label" xml:space="preserve" text-anchor="middle" alignment-baseline="central">New Account Status</text><svg class="icon" width="16" height="16" x="68.56795883178711" y="-8"/></g></g><g class="node-container" transform="translate(171.17831707000732,734.8000001907349)"><g class="node state Choice" aria-label="State Check Account Status" data-virtual-tab-id="51" tabindex="-1" transform="translate(-8)"><rect class="shape step-status" rx="5" ry="5" x="-78.46095275878906" y="-18.800000190734863" width="172.92190551757812" height="37.60000038146973"/><text class="label" xml:space="preserve" text-anchor="middle" alignment-baseline="central">Check Account Status</text><svg class="icon" width="16" height="16" x="73.46095275878906" y="-8"/></g></g><g class="node-container" transform="translate(245.26269340515137,1047.8000020980835)"><g class="node state Fail" aria-label="State Failed" data-virtual-tab-id="52" tabindex="-1" transform="translate(-8)"><rect class="shape step-status" rx="5" ry="5" x="-28.80000114440918" y="-18.800000190734863" width="73.60000228881836" height="37.60000038146973"/><text class="label" xml:space="preserve" text-anchor="middle" alignment-baseline="central">Failed</text><svg class="icon" width="16" height="16" x="23.80000114440918" y="-8"/></g></g><g class="node-container" transform="translate(97.09394073486328,797.4000005722046)"><g class="node state Pass" aria-label="State New Account Credentials" data-virtual-tab-id="53" tabindex="-1" transform="translate(-8)"><rect class="shape step-status" rx="5" ry="5" x="-89.09394073486328" y="-18.800000190734863" width="194.18788146972656" height="37.60000038146973"/><text class="label" xml:space="preserve" text-anchor="middle" alignment-baseline="central">New Account Credentials</text><svg class="icon" width="16" height="16" x="84.09394073486328" y="-8"/></g></g><g class="node-container" transform="translate(97.09394073486328,860.0000009536743)"><g class="node state Wait" aria-label="State Wait 30 Seconds" data-virtual-tab-id="54" tabindex="-1" transform="translate(-8)"><rect class="shape step-status" rx="5" ry="5" x="-62.675960540771484" y="-18.800000190734863" width="141.35192108154297" height="37.60000038146973"/><text class="label" xml:space="preserve" text-anchor="middle" alignment-baseline="central">Wait 30 Seconds</text><svg class="icon" width="16" height="16" x="57.675960540771484" y="-8"/></g></g><g class="node-container" transform="translate(97.09394073486328,922.600001335144)"><g class="node state Task" aria-label="State Create Stack" data-virtual-tab-id="55" tabindex="-1" transform="translate(-8)"><rect class="shape step-status" rx="5" ry="5" x="-49.986968994140625" y="-18.800000190734863" width="115.97393798828125" height="37.60000038146973"/><text class="label" xml:space="preserve" text-anchor="middle" alignment-baseline="central">Create Stack</text><svg class="icon" width="16" height="16" x="44.986968994140625" y="-8"/></g></g><g class="node-container" transform="translate(97.09394073486328,985.2000017166138)"><g class="node state Task" aria-label="State CreateCase" data-virtual-tab-id="56" tabindex="-1" transform="translate(-8)"><rect class="shape step-status" rx="5" ry="5" x="-45.23125076293945" y="-18.800000190734863" width="106.4625015258789" height="37.60000038146973"/><text class="label" xml:space="preserve" text-anchor="middle" alignment-baseline="central">CreateCase</text><svg class="icon" width="16" height="16" x="40.23125076293945" y="-8"/></g></g><g class="node-container" transform="translate(97.09394073486328,1047.8000020980835)"><g class="node state Task" aria-label="State SendNotification" data-virtual-tab-id="57" tabindex="-1" transform="translate(-8)"><rect class="shape step-status" rx="5" ry="5" x="-63.368751525878906" y="-18.800000190734863" width="142.7375030517578" height="37.60000038146973"/><text class="label" xml:space="preserve" text-anchor="middle" alignment-baseline="central">SendNotification</text><svg class="icon" width="16" height="16" x="58.368751525878906" y="-8"/></g></g><g class="node-container" transform="translate(257.92206859588623,345.5)"><g class="node state Map Container" aria-label="State Loop over all OUs" data-virtual-tab-id="58" tabindex="-1" transform="translate(-128.48749542236328,-95.0999984741211)"><rect class="shape" rx="5" ry="5" width="276.9750061035156" height="180.1999969482422" transform="translate(-14.000007629394531,6)"/><rect class="shape" rx="5" ry="5" width="276.9750061035156" height="180.1999969482422" transform="translate(-12.000007629394531,8)"/><rect class="shape" rx="5" ry="5" width="276.9750061035156" height="180.1999969482422" transform="translate(-10.000007629394531,10)"/><g class="branches" transform="translate(20,70)"><g class="branch" transform="translate(0, 0)"><g class="nodes"><g class="node-container" transform="translate(114.3000020980835,18.800000190734863)"><g class="node state Choice" aria-label="State Is this the OU?" data-virtual-tab-id="59" tabindex="-1" transform="translate(-8)"><rect class="shape step-status" rx="5" ry="5" x="-56.158966064453125" y="-18.800000190734863" width="128.31793212890625" height="37.60000038146973"/><text class="label" xml:space="preserve" text-anchor="middle" alignment-baseline="central">Is this the OU?</text><svg class="icon" width="16" height="16" x="51.158966064453125" y="-8"/></g></g><g class="node-container" transform="translate(50.056251525878906,81.40000057220459)"><g class="node state Pass" aria-label="State Get OU ID" data-virtual-tab-id="60" tabindex="-1" transform="translate(-8)"><rect class="shape step-status" rx="5" ry="5" x="-42.056251525878906" y="-18.800000190734863" width="100.11250305175781" height="37.60000038146973"/><text class="label" xml:space="preserve" text-anchor="middle" alignment-baseline="central">Get OU ID</text><svg class="icon" width="16" height="16" x="37.056251525878906" y="-8"/></g></g><g class="node-container" transform="translate(178.5437526702881,81.40000057220459)"><g class="node state Pass" aria-label="State Ignore" data-virtual-tab-id="61" tabindex="-1" transform="translate(-8)"><rect class="shape step-status" rx="5" ry="5" x="-30.431249618530273" y="-18.800000190734863" width="76.86249923706055" height="37.60000038146973"/><text class="label" xml:space="preserve" text-anchor="middle" alignment-baseline="central">Ignore</text><svg class="icon" width="16" height="16" x="25.431249618530273" y="-8"/></g></g></g><g class="edges"><g class="edge"><path class="path" marker-end="url(#arrowhead56)" d="M75.713,37.6L71.437,39.683C67.161,41.767,58.608,45.933,54.332,50.1C50.056,54.267,50.056,58.433,50.056,60.517L50.056,62.6" style="fill: none;"/><defs><marker id="arrowhead56" viewBox="0 0 10 10" refX="9" refY="5" markerUnits="strokeWidth" markerWidth="8" markerHeight="6" orient="auto"><path d="M 0 0 L 10 5 L 0 10 z"/></marker></defs></g><g class="edge"><path class="path" marker-end="url(#arrowhead57)" d="M152.887,37.6L157.163,39.683C161.439,41.767,169.992,45.933,174.268,50.1C178.544,54.267,178.544,58.433,178.544,60.517L178.544,62.6" style="fill: none;"/><defs><marker id="arrowhead57" viewBox="0 0 10 10" refX="9" refY="5" markerUnits="strokeWidth" markerWidth="8" markerHeight="6" orient="auto"><path d="M 0 0 L 10 5 L 0 10 z"/></marker></defs></g></g></g></g><path class="path" marker-end="url(#arrowhead58)" d="M128.487,0L128.487,1.667C128.487,3.333,128.487,6.667,129.456,12.5C130.425,18.333,132.362,26.667,133.331,36.667C134.3,46.667,134.3,58.333,134.3,64.167L134.3,70" style="fill: none;"/><defs><marker id="arrowhead58" viewBox="0 0 10 10" refX="9" refY="5" markerUnits="strokeWidth" markerWidth="8" markerHeight="6" orient="auto"><path d="M 0 0 L 10 5 L 0 10 z"/></marker></defs><g class="title node state"><rect class="shape step-status" rx="5" ry="5" x="0" y="0" width="256.97499084472656" height="40" transform="translate(0)"/><text class="label" xml:space="preserve" text-anchor="middle" alignment-baseline="central" font-weight="600" x="256.97499084472656" y="10" transform="translate(-136.48749542236328)">Loop over all OUs</text><text class="desciption" xml:space="preserve" text-anchor="middle" alignment-baseline="central" x="256.97499084472656" y="30" transform="translate(-128.48749542236328)"/><svg class="icon" width="16" height="16" xml:space="preserve" text-anchor="middle" alignment-baseline="central" x="187.00144958496094" y="3"/></g></g></g><g class="node-container" transform="translate(257.92206859588623,484.39999866485596)"><g class="node state Pass" aria-label="State Get The OU Details" data-virtual-tab-id="62" tabindex="-1" transform="translate(-8)"><rect class="shape step-status" rx="5" ry="5" x="-70.83095169067383" y="-18.800000190734863" width="157.66190338134766" height="37.60000038146973"/><text class="label" xml:space="preserve" text-anchor="middle" alignment-baseline="central">Get The OU Details</text><svg class="icon" width="16" height="16" x="65.83095169067383" y="-8"/></g></g></g><g class="edges"><g class="edge"><path class="path" marker-end="url(#arrowhead59)" d="M171.178,100.2L171.178,102.283C171.178,104.367,171.178,108.533,171.178,112.7C171.178,116.867,171.178,121.033,171.178,123.117L171.178,125.2" style="fill: none;"/><defs><marker id="arrowhead59" viewBox="0 0 10 10" refX="9" refY="5" markerUnits="strokeWidth" markerWidth="8" markerHeight="6" orient="auto"><path d="M 0 0 L 10 5 L 0 10 z"/></marker></defs></g><g class="edge"><path class="path" marker-end="url(#arrowhead60)" d="M171.178,44.781L171.178,45.667C171.178,46.554,171.178,48.327,171.178,51.297C171.178,54.267,171.178,58.433,171.178,60.517L171.178,62.6" style="fill: none;"/><defs><marker id="arrowhead60" viewBox="0 0 10 10" refX="9" refY="5" markerUnits="strokeWidth" markerWidth="8" markerHeight="6" orient="auto"><path d="M 0 0 L 10 5 L 0 10 z"/></marker></defs></g><g class="edge"><path class="path" marker-end="url(#arrowhead61)" d="M119.077,162.8L113.303,164.883C107.529,166.967,95.982,171.133,90.208,178.433C84.435,185.733,84.435,196.167,84.435,206.6C84.435,217.033,84.435,227.467,84.435,250.617C84.435,273.767,84.435,309.633,84.435,345.5C84.435,381.367,84.435,417.233,84.435,440.383C84.435,463.533,84.435,473.967,84.435,484.4C84.435,494.833,84.435,505.267,90.208,512.567C95.982,519.867,107.529,524.033,113.303,526.117L119.077,528.2" style="fill: none;"/><defs><marker id="arrowhead61" viewBox="0 0 10 10" refX="9" refY="5" markerUnits="strokeWidth" markerWidth="8" markerHeight="6" orient="auto"><path d="M 0 0 L 10 5 L 0 10 z"/></marker></defs></g><g class="edge"><path class="path" marker-end="url(#arrowhead62)" d="M223.28,162.8L229.054,164.883C234.827,166.967,246.375,171.133,252.148,175.3C257.922,179.467,257.922,183.633,257.922,185.717L257.922,187.8" style="fill: none;"/><defs><marker id="arrowhead62" viewBox="0 0 10 10" refX="9" refY="5" markerUnits="strokeWidth" markerWidth="8" markerHeight="6" orient="auto"><path d="M 0 0 L 10 5 L 0 10 z"/></marker></defs></g><g class="edge"><path class="path" marker-end="url(#arrowhead63)" d="M171.178,565.8L171.178,567.883C171.178,569.967,171.178,574.133,171.178,578.3C171.178,582.467,171.178,586.633,171.178,588.717L171.178,590.8" style="fill: none;"/><defs><marker id="arrowhead63" viewBox="0 0 10 10" refX="9" refY="5" markerUnits="strokeWidth" markerWidth="8" markerHeight="6" orient="auto"><path d="M 0 0 L 10 5 L 0 10 z"/></marker></defs></g><g class="edge"><path class="path" marker-end="url(#arrowhead64)" d="M136.171,628.4L132.291,630.483C128.412,632.567,120.653,636.733,116.774,640.9C112.894,645.067,112.894,649.233,112.894,651.317L112.894,653.4" style="fill: none;"/><defs><marker id="arrowhead64" viewBox="0 0 10 10" refX="9" refY="5" markerUnits="strokeWidth" markerWidth="8" markerHeight="6" orient="auto"><path d="M 0 0 L 10 5 L 0 10 z"/></marker></defs></g><g class="edge"><path class="path" marker-end="url(#arrowhead65)" d="M112.894,691L112.894,693.083C112.894,695.167,112.894,699.333,116.774,703.5C120.653,707.667,128.412,711.833,132.291,713.917L136.171,716" style="fill: none;"/><defs><marker id="arrowhead65" viewBox="0 0 10 10" refX="9" refY="5" markerUnits="strokeWidth" markerWidth="8" markerHeight="6" orient="auto"><path d="M 0 0 L 10 5 L 0 10 z"/></marker></defs></g><g class="edge"><path class="path" marker-end="url(#arrowhead66)" d="M206.186,716L210.065,713.917C213.945,711.833,221.704,707.667,225.583,700.367C229.462,693.067,229.462,682.633,229.462,672.2C229.462,661.767,229.462,651.333,225.583,644.033C221.704,636.733,213.945,632.567,210.065,630.483L206.186,628.4" style="fill: none;"/><defs><marker id="arrowhead66" viewBox="0 0 10 10" refX="9" refY="5" markerUnits="strokeWidth" markerWidth="8" markerHeight="6" orient="auto"><path d="M 0 0 L 10 5 L 0 10 z"/></marker></defs></g><g class="edge"><path class="path" marker-end="url(#arrowhead67)" d="M215.676,753.6L220.607,755.683C225.538,757.767,235.401,761.933,240.332,769.233C245.263,776.533,245.263,786.967,245.263,797.4C245.263,807.833,245.263,818.267,245.263,828.7C245.263,839.133,245.263,849.567,245.263,860C245.263,870.433,245.263,880.867,245.263,891.3C245.263,901.733,245.263,912.167,245.263,922.6C245.263,933.033,245.263,943.467,245.263,953.9C245.263,964.333,245.263,974.767,245.263,985.2C245.263,995.633,245.263,1006.067,245.263,1013.367C245.263,1020.667,245.263,1024.833,245.263,1026.917L245.263,1029" style="fill: none;"/><defs><marker id="arrowhead67" viewBox="0 0 10 10" refX="9" refY="5" markerUnits="strokeWidth" markerWidth="8" markerHeight="6" orient="auto"><path d="M 0 0 L 10 5 L 0 10 z"/></marker></defs></g><g class="edge"><path class="path" marker-end="url(#arrowhead68)" d="M126.68,753.6L121.749,755.683C116.818,757.767,106.956,761.933,102.025,766.1C97.094,770.267,97.094,774.433,97.094,776.517L97.094,778.6" style="fill: none;"/><defs><marker id="arrowhead68" viewBox="0 0 10 10" refX="9" refY="5" markerUnits="strokeWidth" markerWidth="8" markerHeight="6" orient="auto"><path d="M 0 0 L 10 5 L 0 10 z"/></marker></defs></g><g class="edge"><path class="path" marker-end="url(#arrowhead69)" d="M97.094,816.2L97.094,818.283C97.094,820.367,97.094,824.533,97.094,828.7C97.094,832.867,97.094,837.033,97.094,839.117L97.094,841.2" style="fill: none;"/><defs><marker id="arrowhead69" viewBox="0 0 10 10" refX="9" refY="5" markerUnits="strokeWidth" markerWidth="8" markerHeight="6" orient="auto"><path d="M 0 0 L 10 5 L 0 10 z"/></marker></defs></g><g class="edge"><path class="path" marker-end="url(#arrowhead70)" d="M97.094,878.8L97.094,880.883C97.094,882.967,97.094,887.133,97.094,891.3C97.094,895.467,97.094,899.633,97.094,901.717L97.094,903.8" style="fill: none;"/><defs><marker id="arrowhead70" viewBox="0 0 10 10" refX="9" refY="5" markerUnits="strokeWidth" markerWidth="8" markerHeight="6" orient="auto"><path d="M 0 0 L 10 5 L 0 10 z"/></marker></defs></g><g class="edge"><path class="path" marker-end="url(#arrowhead71)" d="M97.094,941.4L97.094,943.483C97.094,945.567,97.094,949.733,97.094,953.9C97.094,958.067,97.094,962.233,97.094,964.317L97.094,966.4" style="fill: none;"/><defs><marker id="arrowhead71" viewBox="0 0 10 10" refX="9" refY="5" markerUnits="strokeWidth" markerWidth="8" markerHeight="6" orient="auto"><path d="M 0 0 L 10 5 L 0 10 z"/></marker></defs></g><g class="edge"><path class="path" marker-end="url(#arrowhead72)" d="M97.094,1004L97.094,1006.083C97.094,1008.167,97.094,1012.333,97.094,1016.5C97.094,1020.667,97.094,1024.833,97.094,1026.917L97.094,1029" style="fill: none;"/><defs><marker id="arrowhead72" viewBox="0 0 10 10" refX="9" refY="5" markerUnits="strokeWidth" markerWidth="8" markerHeight="6" orient="auto"><path d="M 0 0 L 10 5 L 0 10 z"/></marker></defs></g><g class="edge"><path class="path" marker-end="url(#arrowhead73)" d="M97.094,1066.6L97.094,1068.683C97.094,1070.767,97.094,1074.933,106.037,1080.795C114.98,1086.657,132.866,1094.213,141.809,1097.992L150.752,1101.77" style="fill: none;"/><defs><marker id="arrowhead73" viewBox="0 0 10 10" refX="9" refY="5" markerUnits="strokeWidth" markerWidth="8" markerHeight="6" orient="auto"><path d="M 0 0 L 10 5 L 0 10 z"/></marker></defs></g><g class="edge"><path class="path" marker-end="url(#arrowhead74)" d="M257.922,225.4L257.922,227.483C257.922,229.567,257.922,233.733,257.922,237.9C257.922,242.067,257.922,246.233,257.922,248.317L257.922,250.4" style="fill: none;"/></g><g class="edge"><path class="path" marker-end="url(#arrowhead75)" d="M257.922,440.6L257.922,442.683C257.922,444.767,257.922,448.933,257.922,453.1C257.922,457.267,257.922,461.433,257.922,463.517L257.922,465.6" style="fill: none;"/><defs><marker id="arrowhead75" viewBox="0 0 10 10" refX="9" refY="5" markerUnits="strokeWidth" markerWidth="8" markerHeight="6" orient="auto"><path d="M 0 0 L 10 5 L 0 10 z"/></marker></defs></g><g class="edge"><path class="path" marker-end="url(#arrowhead76)" d="M257.922,503.2L257.922,505.283C257.922,507.367,257.922,511.533,252.148,515.7C246.375,519.867,234.827,524.033,229.054,526.117L223.28,528.2" style="fill: none;"/><defs><marker id="arrowhead76" viewBox="0 0 10 10" refX="9" refY="5" markerUnits="strokeWidth" markerWidth="8" markerHeight="6" orient="auto"><path d="M 0 0 L 10 5 L 0 10 z"/></marker></defs></g><g class="edge"><path class="path" marker-end="url(#arrowhead77)" d="M245.263,1066.6L245.263,1068.683C245.263,1070.767,245.263,1074.933,236.32,1080.795C227.377,1086.657,209.491,1094.213,200.548,1097.992L191.605,1101.77" style="fill: none;"/><defs><marker id="arrowhead77" viewBox="0 0 10 10" refX="9" refY="5" markerUnits="strokeWidth" markerWidth="8" markerHeight="6" orient="auto"><path d="M 0 0 L 10 5 L 0 10 z"/></marker></defs></g></g></g><style xmlns="http://www.w3.org/1999/xhtml">
  .link &gt; rect {
    fill: #0073BB;
  }

  .link .label {
    fill: #FFFFFF;
  }

  .node &gt; .shape {
    stroke: #555555;
    stroke-width: 0.6px;
    fill: #FFFFFF;
  }

  path {
    stroke: #555;
    background-color: #555;
    stroke-width: 1px;
  }

  .node.state.NotYetStarted &gt; .shape,
  .node.state.Container &gt; .shape {
    stroke-dasharray: 5 2;
  }

  .node.state.FailedState &gt; .shape,
  rect.legend.FailedState {
    fill: #DE322F;
  }

  .node.state.CaughtErrorState &gt; .shape,
  rect.legend.CaughtErrorState {
    fill: #FFA500;
  }

  .node.state.SucceededState &gt; .shape,
  rect.legend.SucceededState {
    fill: #2BD62E;
  }

  .node.state.InProgressState &gt; .shape,
  rect.legend.InProgressState {
    fill: #53c9ed;
  }

  .node.state.CancelledState &gt; .shape,
  rect.legend.CancelledState {
    fill: #dddddd;
  }

  .node.anchor &gt; .shape {
    fill: #FFDA75;
  }

  .node.state.hovered:not(.selected):not(.NotYetStarted) &gt; .shape,
  .node.selected &gt; .shape {
    stroke: #555555;
    stroke-width: 2px;
  }

  .node.state.Container.Failed &gt; .shape {
    fill: #EE9592;
  }

  .node.state.Container.CaughtError &gt; .shape {
    fill: #FFD27F;
  }

  .node.state.Container.Succeeded &gt; .shape {
    fill: #91EA9A;
  }

  .node.state.Container.InProgress &gt; .shape {
    fill :#A9E4F7;
  }

  .node.state.Container.Cancelled &gt; .shape {
    fill: #EEEEEE;
  }

  marker {
    fill: #555555;
  }

  .node.anchor,
  .node.state.NotYetStarted {
    cursor: default;
  }

  .node.state {
    cursor: default;
  }

  tspan .label {
    font-weight: normal;
    font-size: 12px;
    text-shadow: none;
  }
</style></svg>