<!DOCTYPE svg PUBLIC "-//W3C//DTD SVG 1.1//EN" "https://www.w3.org/Graphics/SVG/1.1/DTD/svg11.dtd"><svg xmlns="http://www.w3.org/2000/svg" id="sfn-svg" class="sfn-workflow-graph" width="378" height="1178">
    
    
<g transform="translate(12,19.599998474121094)"><g class="nodes"><g class="node-container" transform="translate(160.2000036239624,18.800000190734863)"><g class="node anchor"><circle class="shape" x="-16.399999618530273" y="-8.800000190734863" r="26.399999618530273"/><text class="label"><tspan xml:space="preserve" text-anchor="middle" alignment-baseline="central">Start</tspan></text></g></g><g class="node-container" transform="translate(160.2000036239624,1123.000002861023)"><g class="node anchor"><circle class="shape" x="-12.800000190734863" y="-8.800000190734863" r="22.800000190734863"/><text class="label"><tspan xml:space="preserve" text-anchor="middle" alignment-baseline="central">End</tspan></text></g></g><g class="node-container" transform="translate(160.2000036239624,81.40000057220459)"><g class="node state Task NotYetStarted"><rect class="shape" rx="5" ry="5" x="-83.5999984741211" y="-18.800000190734863" width="167.1999969482422" height="37.60000038146973"/><text class="label"><tspan xml:space="preserve" text-anchor="middle" alignment-baseline="central">Get Organization Root</tspan></text></g></g><g class="node-container" transform="translate(160.2000036239624,144.00000095367432)"><g class="node state Task NotYetStarted"><rect class="shape" rx="5" ry="5" x="-115.20000457763672" y="-18.800000190734863" width="230.40000915527344" height="37.60000038146973"/><text class="label"><tspan xml:space="preserve" text-anchor="middle" alignment-baseline="central">Create New Organizational Unit</tspan></text></g></g><g class="node-container" transform="translate(160.2000036239624,496.9999990463257)"><g class="node state Task NotYetStarted"><rect class="shape" rx="5" ry="5" x="-76.80000305175781" y="-18.800000190734863" width="153.60000610351562" height="37.60000038146973"/><text class="label"><tspan xml:space="preserve" text-anchor="middle" alignment-baseline="central">Create New Account</tspan></text></g></g><g class="node-container" transform="translate(238.65000820159912,206.60000133514404)"><g class="node state Task NotYetStarted"><rect class="shape" rx="5" ry="5" x="-91.5999984741211" y="-18.800000190734863" width="183.1999969482422" height="37.60000038146973"/><text class="label"><tspan xml:space="preserve" text-anchor="middle" alignment-baseline="central">List Organizational Units</tspan></text></g></g><g class="node-container" transform="translate(160.2000036239624,559.5999994277954)"><g class="node state Wait NotYetStarted"><rect class="shape" rx="5" ry="5" x="-49.20000076293945" y="-18.800000190734863" width="98.4000015258789" height="37.60000038146973"/><text class="label"><tspan xml:space="preserve" text-anchor="middle" alignment-baseline="central">Wait 30 Sec</tspan></text></g></g><g class="node-container" transform="translate(104.90000438690186,622.1999998092651)"><g class="node state Task NotYetStarted"><rect class="shape" rx="5" ry="5" x="-75.5999984741211" y="-18.800000190734863" width="151.1999969482422" height="37.60000038146973"/><text class="label"><tspan xml:space="preserve" text-anchor="middle" alignment-baseline="central">New Account Status</tspan></text></g></g><g class="node-container" transform="translate(160.2000036239624,684.8000001907349)"><g class="node state Choice NotYetStarted"><rect class="shape" rx="5" ry="5" x="-80.4000015258789" y="-18.800000190734863" width="160.8000030517578" height="37.60000038146973"/><text class="label"><tspan xml:space="preserve" text-anchor="middle" alignment-baseline="central">Check Account Status</tspan></text></g></g><g class="node-container" transform="translate(227.600004196167,1060.4000024795532)"><g class="node state Fail NotYetStarted"><rect class="shape" rx="5" ry="5" x="-29.600000381469727" y="-18.800000190734863" width="59.20000076293945" height="37.60000038146973"/><text class="label"><tspan xml:space="preserve" text-anchor="middle" alignment-baseline="central">Failed</tspan></text></g></g><g class="node-container" transform="translate(92.80000305175781,747.4000005722046)"><g class="node state Pass NotYetStarted"><rect class="shape" rx="5" ry="5" x="-92.80000305175781" y="-18.800000190734863" width="185.60000610351562" height="37.60000038146973"/><text class="label"><tspan xml:space="preserve" text-anchor="middle" alignment-baseline="central">New Account Credentials</tspan></text></g></g><g class="node-container" transform="translate(92.80000305175781,810.0000009536743)"><g class="node state Wait NotYetStarted"><rect class="shape" rx="5" ry="5" x="-65.20000076293945" y="-18.800000190734863" width="130.4000015258789" height="37.60000038146973"/><text class="label"><tspan xml:space="preserve" text-anchor="middle" alignment-baseline="central">Wait 30 Seconds</tspan></text></g></g><g class="node-container" transform="translate(92.80000305175781,872.600001335144)"><g class="node state Task NotYetStarted"><rect class="shape" rx="5" ry="5" x="-50.79999923706055" y="-18.800000190734863" width="101.5999984741211" height="37.60000038146973"/><text class="label"><tspan xml:space="preserve" text-anchor="middle" alignment-baseline="central">Create Stack</tspan></text></g></g><g class="node-container" transform="translate(92.80000305175781,935.2000017166138)"><g class="node state Task NotYetStarted"><rect class="shape" rx="5" ry="5" x="-46.79999923706055" y="-18.800000190734863" width="93.5999984741211" height="37.60000038146973"/><text class="label"><tspan xml:space="preserve" text-anchor="middle" alignment-baseline="central">CreateCase</tspan></text></g></g><g class="node-container" transform="translate(92.80000305175781,997.8000020980835)"><g class="node state Task NotYetStarted"><rect class="shape" rx="5" ry="5" x="-78.4000015258789" y="-18.800000190734863" width="156.8000030517578" height="37.60000038146973"/><text class="label"><tspan xml:space="preserve" text-anchor="middle" alignment-baseline="central">Move Account To OU</tspan></text></g></g><g class="node-container" transform="translate(92.80000305175781,1060.4000024795532)"><g class="node state Task NotYetStarted"><rect class="shape" rx="5" ry="5" x="-65.20000076293945" y="-18.800000190734863" width="130.4000015258789" height="37.60000038146973"/><text class="label"><tspan xml:space="preserve" text-anchor="middle" alignment-baseline="central">SendNotification</tspan></text></g></g><g class="node-container" transform="translate(238.65000820159912,320.5)"><g class="node state Map NotYetStarted Container" transform="translate(-114.40000915527344,-70.0999984741211)"><rect class="shape" rx="5" ry="5" x="-10" y="-10" width="226.80001831054688" height="138.1999969482422"/><rect class="shape" rx="5" ry="5" x="-5" y="-5" width="227.80001831054688" height="139.1999969482422"/><rect class="shape" rx="5" ry="5" x="0" y="0" width="228.80001831054688" height="140.1999969482422"/><g class="branches" transform="translate(20,20)"><g class="branch" transform="translate(0,0)"><g class="nodes"><g class="node-container" transform="translate(100.4000015258789,18.800000190734863)"><g class="node state Choice NotYetStarted"><rect class="shape" rx="5" ry="5" x="-58.79999923706055" y="-18.800000190734863" width="117.5999984741211" height="37.60000038146973"/><text class="label"><tspan xml:space="preserve" text-anchor="middle" alignment-baseline="central">Is this the OU?</tspan></text></g></g><g class="node-container" transform="translate(43.20000076293945,81.40000057220459)"><g class="node state Pass NotYetStarted"><rect class="shape" rx="5" ry="5" x="-43.20000076293945" y="-18.800000190734863" width="86.4000015258789" height="37.60000038146973"/><text class="label"><tspan xml:space="preserve" text-anchor="middle" alignment-baseline="central">Get OU ID</tspan></text></g></g><g class="node-container" transform="translate(157.60000228881836,81.40000057220459)"><g class="node state Pass NotYetStarted"><rect class="shape" rx="5" ry="5" x="-31.200000762939453" y="-18.800000190734863" width="62.400001525878906" height="37.60000038146973"/><text class="label"><tspan xml:space="preserve" text-anchor="middle" alignment-baseline="central">Ignore</tspan></text></g></g></g><g class="edges"><g class="edge"><path class="path" marker-end="url(#arrowhead46)" d="M66.04345140765832,37.60000038146973L62.236209633538515,39.683333714803055C58.4289678594187,41.76666704813639,50.81448431117907,45.933333714803055,47.00724253705926,50.10000038146973C43.20000076293945,54.26666704813639,43.20000076293945,58.433333714803055,43.20000076293945,60.51666704813639L43.20000076293945,62.60000038146973" style="fill: none;"/><defs><marker id="arrowhead46" viewBox="0 0 10 10" refX="9" refY="5" markerUnits="strokeWidth" markerWidth="8" markerHeight="6" orient="auto"><path d="M 0 0 L 10 5 L 0 10 z"/></marker></defs></g><g class="edge"><path class="path" marker-end="url(#arrowhead47)" d="M134.7565516440995,37.60000038146973L138.5637934182193,39.683333714803055C142.3710351923391,41.76666704813639,149.98551874057873,45.933333714803055,153.79276051469853,50.10000038146973C157.60000228881836,54.26666704813639,157.60000228881836,58.433333714803055,157.60000228881833,60.51666704813639L157.60000228881836,62.60000038146973" style="fill: none;"/><defs><marker id="arrowhead47" viewBox="0 0 10 10" refX="9" refY="5" markerUnits="strokeWidth" markerWidth="8" markerHeight="6" orient="auto"><path d="M 0 0 L 10 5 L 0 10 z"/></marker></defs></g></g></g></g><path class="path" marker-end="url(#arrowhead48)" d="M114.40000915527344,0L114.40000915527341,1.6666666666666665C114.40000915527342,3.333333333333333,114.40000915527342,6.666666666666666,115.40000788370766,8.333333333333332C116.40000661214191,10,118.40000406901041,10,119.40000279744466,11.666666666666664C120.4000015258789,13.333333333333332,120.4000015258789,16.666666666666664,120.40000152587889,18.333333333333332L120.4000015258789,20" style="fill: none;"/></g></g><g class="node-container" transform="translate(238.65000820159912,434.39999866485596)"><g class="node state Pass NotYetStarted"><rect class="shape" rx="5" ry="5" x="-73.20000076293945" y="-18.800000190734863" width="146.4000015258789" height="37.60000038146973"/><text class="label"><tspan xml:space="preserve" text-anchor="middle" alignment-baseline="central">Get The OU Details</tspan></text></g></g></g><g class="edges"><g class="edge"><path class="path" marker-end="url(#arrowhead49)" d="M160.2000036239624,100.20000076293945L160.2000036239624,102.28333409627277C160.2000036239624,104.36666742960611,160.2000036239624,108.53333409627277,160.2000036239624,112.70000076293944C160.2000036239624,116.86666742960611,160.2000036239624,121.03333409627278,160.2000036239624,123.11666742960611L160.2000036239624,125.20000076293945" style="fill: none;"/><defs><marker id="arrowhead49" viewBox="0 0 10 10" refX="9" refY="5" markerUnits="strokeWidth" markerWidth="8" markerHeight="6" orient="auto"><path d="M 0 0 L 10 5 L 0 10 z"/></marker></defs></g><g class="edge"><path class="path" marker-end="url(#arrowhead50)" d="M160.2000036239624,45.19999980926514L160.2000036239624,46.01666657129923C160.2000036239624,46.83333333333333,160.2000036239624,48.46666685740153,160.2000036239624,51.36666695276896C160.2000036239624,54.26666704813639,160.2000036239624,58.433333714803055,160.2000036239624,60.51666704813639L160.2000036239624,62.60000038146973" style="fill: none;"/><defs><marker id="arrowhead50" viewBox="0 0 10 10" refX="9" refY="5" markerUnits="strokeWidth" markerWidth="8" markerHeight="6" orient="auto"><path d="M 0 0 L 10 5 L 0 10 z"/></marker></defs></g><g class="edge"><path class="path" marker-end="url(#arrowhead51)" d="M113.0798728880113,162.80000114440918L107.85822724773035,164.8833344777425C102.63658160744941,166.96666781107584,92.19329032688755,171.1333344777425,86.97164468660661,178.43333450953165C81.74999904632568,185.7333345413208,81.74999904632568,196.16666793823242,81.74999904632567,206.60000133514401C81.74999904632568,217.03333473205566,81.74999904632568,227.46666812896729,81.74999904632567,246.45000123977658C81.74999904632568,265.43333435058594,81.74999904632568,292.96666717529297,81.74999904632567,320.5C81.74999904632568,348.03333282470703,81.74999904632568,375.566665649414,81.74999904632567,394.5499987602234C81.74999904632568,413.53333187103266,81.74999904632568,423.9666652679443,81.74999904632567,434.39999866485584C81.74999904632568,444.8333320617675,81.74999904632568,455.26666545867914,86.97164468660661,462.56666549046827C92.19329032688755,469.86666552225745,102.63658160744941,474.03333218892413,107.85822724773035,476.11666552225745L113.0798728880113,478.1999988555908" style="fill: none;"/><defs><marker id="arrowhead51" viewBox="0 0 10 10" refX="9" refY="5" markerUnits="strokeWidth" markerWidth="8" markerHeight="6" orient="auto"><path d="M 0 0 L 10 5 L 0 10 z"/></marker></defs></g><g class="edge"><path class="path" marker-end="url(#arrowhead52)" d="M207.3201343599135,162.80000114440918L212.54178000019442,164.8833344777425C217.76342564047536,166.96666781107584,228.20671692103724,171.1333344777425,233.42836256131818,175.30000114440918C238.6500082015991,179.46666781107584,238.6500082015991,183.6333344777425,238.65000820159906,185.71666781107584L238.65000820159912,187.80000114440918" style="fill: none;"/><defs><marker id="arrowhead52" viewBox="0 0 10 10" refX="9" refY="5" markerUnits="strokeWidth" markerWidth="8" markerHeight="6" orient="auto"><path d="M 0 0 L 10 5 L 0 10 z"/></marker></defs></g><g class="edge"><path class="path" marker-end="url(#arrowhead53)" d="M160.2000036239624,515.7999992370605L160.2000036239624,517.8833325703938C160.2000036239624,519.9666659037272,160.2000036239624,524.1333325703938,160.2000036239624,528.2999992370605C160.2000036239624,532.4666659037272,160.2000036239624,536.6333325703938,160.2000036239624,538.7166659037272L160.2000036239624,540.7999992370605" style="fill: none;"/><defs><marker id="arrowhead53" viewBox="0 0 10 10" refX="9" refY="5" markerUnits="strokeWidth" markerWidth="8" markerHeight="6" orient="auto"><path d="M 0 0 L 10 5 L 0 10 z"/></marker></defs></g><g class="edge"><path class="path" marker-end="url(#arrowhead54)" d="M126.98466848437602,578.3999996185303L123.30389113479697,580.4833329518635C119.62311378521795,582.5666662851969,112.2615590860599,586.7333329518635,108.58078173648087,590.8999996185303C104.90000438690186,595.0666662851969,104.90000438690186,599.2333329518635,104.90000438690186,601.3166662851969L104.90000438690186,603.3999996185303" style="fill: none;"/><defs><marker id="arrowhead54" viewBox="0 0 10 10" refX="9" refY="5" markerUnits="strokeWidth" markerWidth="8" markerHeight="6" orient="auto"><path d="M 0 0 L 10 5 L 0 10 z"/></marker></defs></g><g class="edge"><path class="path" marker-end="url(#arrowhead55)" d="M104.90000438690186,641L104.90000438690186,643.0833333333333C104.90000438690186,645.1666666666666,104.90000438690186,649.3333333333333,108.58078173648087,653.5C112.2615590860599,657.6666666666666,119.62311378521795,661.8333333333333,123.30389113479697,663.9166666666666L126.98466848437602,666" style="fill: none;"/><defs><marker id="arrowhead55" viewBox="0 0 10 10" refX="9" refY="5" markerUnits="strokeWidth" markerWidth="8" markerHeight="6" orient="auto"><path d="M 0 0 L 10 5 L 0 10 z"/></marker></defs></g><g class="edge"><path class="path" marker-end="url(#arrowhead56)" d="M193.4153387635488,666L197.0961161131278,663.9166666666666C200.77689346270682,661.8333333333333,208.1384481618649,657.6666666666666,211.8192255114439,650.3666666348774C215.50000286102295,643.0666666030884,215.50000286102295,632.6333332061768,215.50000286102292,622.199999809265C215.50000286102295,611.7666664123535,215.50000286102295,601.3333330154419,211.8192255114439,594.0333329836527C208.1384481618649,586.7333329518635,200.77689346270682,582.5666662851969,197.0961161131278,580.4833329518636L193.4153387635488,578.3999996185303" style="fill: none;"/><defs><marker id="arrowhead56" viewBox="0 0 10 10" refX="9" refY="5" markerUnits="strokeWidth" markerWidth="8" markerHeight="6" orient="auto"><path d="M 0 0 L 10 5 L 0 10 z"/></marker></defs></g><g class="edge"><path class="path" marker-end="url(#arrowhead57)" d="M200.68307122432802,703.6000003814697L205.16922671963448,705.683333714803C209.65538221494097,707.7666670481364,218.62769320555398,711.933333714803,223.11384870086047,719.2333337465922C227.600004196167,726.5333337783813,227.600004196167,736.966667175293,227.60000419616696,747.4000005722045C227.600004196167,757.8333339691162,227.600004196167,768.2666673660278,227.60000419616696,778.7000007629393C227.600004196167,789.1333341598511,227.600004196167,799.5666675567627,227.60000419616696,810.0000009536742C227.600004196167,820.4333343505859,227.600004196167,830.8666677474976,227.60000419616696,841.3000011444091C227.600004196167,851.7333345413208,227.600004196167,862.1666679382324,227.60000419616696,872.6000013351439C227.600004196167,883.0333347320557,227.600004196167,893.4666681289673,227.60000419616696,903.9000015258788C227.600004196167,914.3333349227905,227.600004196167,924.7666683197021,227.60000419616696,935.2000017166137C227.600004196167,945.6333351135254,227.600004196167,956.066668510437,227.60000419616696,966.5000019073485C227.600004196167,976.9333353042603,227.600004196167,987.3666687011719,227.60000419616696,997.8000020980834C227.600004196167,1008.2333354949951,227.600004196167,1018.6666688919067,227.60000419616696,1025.9666689236958C227.600004196167,1033.2666689554849,227.600004196167,1037.4333356221516,227.60000419616696,1039.5166689554849L227.600004196167,1041.6000022888184" style="fill: none;"/><defs><marker id="arrowhead57" viewBox="0 0 10 10" refX="9" refY="5" markerUnits="strokeWidth" markerWidth="8" markerHeight="6" orient="auto"><path d="M 0 0 L 10 5 L 0 10 z"/></marker></defs></g><g class="edge"><path class="path" marker-end="url(#arrowhead58)" d="M119.71693602359679,703.6000003814697L115.23078052829028,705.683333714803C110.74462503298379,707.7666670481364,101.7723140423708,711.933333714803,97.2861585470643,716.1000003814697C92.80000305175781,720.2666670481364,92.80000305175781,724.433333714803,92.80000305175781,726.5166670481364L92.80000305175781,728.6000003814697" style="fill: none;"/><defs><marker id="arrowhead58" viewBox="0 0 10 10" refX="9" refY="5" markerUnits="strokeWidth" markerWidth="8" markerHeight="6" orient="auto"><path d="M 0 0 L 10 5 L 0 10 z"/></marker></defs></g><g class="edge"><path class="path" marker-end="url(#arrowhead59)" d="M92.80000305175781,766.2000007629395L92.80000305175781,768.2833340962727C92.80000305175781,770.3666674296061,92.80000305175781,774.5333340962727,92.80000305175781,778.7000007629395C92.80000305175781,782.8666674296061,92.80000305175781,787.0333340962727,92.80000305175781,789.1166674296061L92.80000305175781,791.2000007629395" style="fill: none;"/><defs><marker id="arrowhead59" viewBox="0 0 10 10" refX="9" refY="5" markerUnits="strokeWidth" markerWidth="8" markerHeight="6" orient="auto"><path d="M 0 0 L 10 5 L 0 10 z"/></marker></defs></g><g class="edge"><path class="path" marker-end="url(#arrowhead60)" d="M92.80000305175781,828.8000011444092L92.80000305175781,830.8833344777423C92.80000305175781,832.9666678110757,92.80000305175781,837.1333344777424,92.80000305175781,841.3000011444092C92.80000305175781,845.4666678110758,92.80000305175781,849.6333344777424,92.80000305175781,851.7166678110758L92.80000305175781,853.8000011444092" style="fill: none;"/><defs><marker id="arrowhead60" viewBox="0 0 10 10" refX="9" refY="5" markerUnits="strokeWidth" markerWidth="8" markerHeight="6" orient="auto"><path d="M 0 0 L 10 5 L 0 10 z"/></marker></defs></g><g class="edge"><path class="path" marker-end="url(#arrowhead61)" d="M92.80000305175781,891.4000015258789L92.80000305175781,893.483334859212C92.80000305175781,895.5666681925454,92.80000305175781,899.7333348592122,92.80000305175781,903.9000015258789C92.80000305175781,908.0666681925455,92.80000305175781,912.2333348592122,92.80000305175781,914.3166681925455L92.80000305175781,916.4000015258789" style="fill: none;"/><defs><marker id="arrowhead61" viewBox="0 0 10 10" refX="9" refY="5" markerUnits="strokeWidth" markerWidth="8" markerHeight="6" orient="auto"><path d="M 0 0 L 10 5 L 0 10 z"/></marker></defs></g><g class="edge"><path class="path" marker-end="url(#arrowhead62)" d="M92.80000305175781,954.0000019073486L92.80000305175781,956.0833352406818C92.80000305175781,958.1666685740151,92.80000305175781,962.3333352406819,92.80000305175781,966.5000019073486C92.80000305175781,970.6666685740153,92.80000305175781,974.8333352406819,92.80000305175781,976.9166685740153L92.80000305175781,979.0000019073486" style="fill: none;"/><defs><marker id="arrowhead62" viewBox="0 0 10 10" refX="9" refY="5" markerUnits="strokeWidth" markerWidth="8" markerHeight="6" orient="auto"><path d="M 0 0 L 10 5 L 0 10 z"/></marker></defs></g><g class="edge"><path class="path" marker-end="url(#arrowhead63)" d="M92.80000305175781,1016.6000022888184L92.80000305175781,1018.6833356221515C92.80000305175781,1020.7666689554849,92.80000305175781,1024.9333356221516,92.80000305175781,1029.1000022888184C92.80000305175781,1033.2666689554849,92.80000305175781,1037.4333356221516,92.80000305175781,1039.5166689554849L92.80000305175781,1041.6000022888184" style="fill: none;"/><defs><marker id="arrowhead63" viewBox="0 0 10 10" refX="9" refY="5" markerUnits="strokeWidth" markerWidth="8" markerHeight="6" orient="auto"><path d="M 0 0 L 10 5 L 0 10 z"/></marker></defs></g><g class="edge"><path class="path" marker-end="url(#arrowhead64)" d="M92.80000305175781,1079.200002670288L92.80000305175781,1081.2833360036213C92.80000305175781,1083.3666693369546,92.80000305175781,1087.5333360036213,100.58684189350566,1093.2328125886277C108.37368073525352,1098.9322891736338,123.94735841874922,1106.1645756769797,131.73419726049707,1109.7807189286527L139.52103610224492,1113.3968621803256" style="fill: none;"/><defs><marker id="arrowhead64" viewBox="0 0 10 10" refX="9" refY="5" markerUnits="strokeWidth" markerWidth="8" markerHeight="6" orient="auto"><path d="M 0 0 L 10 5 L 0 10 z"/></marker></defs></g><g class="edge"><path class="path" marker-end="url(#arrowhead65)" d="M238.65000820159912,225.4000015258789L238.65000820159906,227.4833348592122C238.6500082015991,229.56666819254554,238.6500082015991,233.73333485921222,238.65000820159906,237.9000015258789C238.6500082015991,242.06666819254556,238.6500082015991,246.23333485921222,238.65000820159906,248.31666819254556L238.65000820159912,250.4000015258789" style="fill: none;"/><defs><marker id="arrowhead65" viewBox="0 0 10 10" refX="9" refY="5" markerUnits="strokeWidth" markerWidth="8" markerHeight="6" orient="auto"><path d="M 0 0 L 10 5 L 0 10 z"/></marker></defs></g><g class="edge"><path class="path" marker-end="url(#arrowhead66)" d="M238.65000820159912,390.5999984741211L238.65000820159906,392.68333180745435C238.6500082015991,394.7666651407877,238.6500082015991,398.93333180745435,238.65000820159906,403.09999847412104C238.6500082015991,407.2666651407877,238.6500082015991,411.4333318074544,238.65000820159906,413.5166651407877L238.65000820159912,415.5999984741211" style="fill: none;"/><defs><marker id="arrowhead66" viewBox="0 0 10 10" refX="9" refY="5" markerUnits="strokeWidth" markerWidth="8" markerHeight="6" orient="auto"><path d="M 0 0 L 10 5 L 0 10 z"/></marker></defs></g><g class="edge"><path class="path" marker-end="url(#arrowhead67)" d="M238.65000820159912,453.1999988555908L238.65000820159906,455.2833321889241C238.6500082015991,457.36666552225745,238.6500082015991,461.5333321889241,233.42836256131815,465.69999885559076C228.20671692103724,469.86666552225745,217.76342564047536,474.03333218892413,212.54178000019445,476.11666552225745L207.3201343599135,478.1999988555908" style="fill: none;"/><defs><marker id="arrowhead67" viewBox="0 0 10 10" refX="9" refY="5" markerUnits="strokeWidth" markerWidth="8" markerHeight="6" orient="auto"><path d="M 0 0 L 10 5 L 0 10 z"/></marker></defs></g><g class="edge"><path class="path" marker-end="url(#arrowhead68)" d="M227.600004196167,1079.200002670288L227.60000419616696,1081.2833360036213C227.600004196167,1083.3666693369546,227.600004196167,1087.5333360036213,219.8131653544191,1093.2328125886277C212.0263265126713,1098.9322891736338,196.4526488291756,1106.1645756769797,188.6658099874277,1109.7807189286527L180.87897114567988,1113.3968621803256" style="fill: none;"/><defs><marker id="arrowhead68" viewBox="0 0 10 10" refX="9" refY="5" markerUnits="strokeWidth" markerWidth="8" markerHeight="6" orient="auto"><path d="M 0 0 L 10 5 L 0 10 z"/></marker></defs></g></g></g><style xmlns="http://www.w3.org/1999/xhtml">.node &gt; .shape {stroke: #555555;stroke-width: 0.6px;fill: #FFFFFF;} path {stroke: #555;background-color: #555;stroke-width: 1px;} .node.state.NotYetStarted &gt; .shape,.node.state.Container &gt; .shape {stroke-dasharray: 5 2;} .node.state.Failed &gt; .shape,rect.legend.Failed {fill: #DE322F;} .node.state.CaughtError &gt; .shape,rect.legend.CaughtError {fill: #FFA500;} .node.state.Succeeded &gt; .shape,rect.legend.Succeeded {fill: #2BD62E;} .node.state.InProgress &gt; .shape,rect.legend.InProgress {fill: #53c9ed;} .node.state.Cancelled &gt; .shape,rect.legend.Cancelled {fill: #dddddd;} .node.anchor &gt; .shape {fill: #FFDA75;} .node.state.hovered:not(.selected):not(.NotYetStarted) &gt; .shape,.node.selected &gt; .shape {stroke: #555555;stroke-width: 2px;} .node.state.Container.Failed &gt; .shape {fill: #EE9592;} .node.state.Container.CaughtError &gt; .shape {fill: #FFD27F;} .node.state.Container.Succeeded &gt; .shape {fill: #91EA9A;} .node.state.Container.InProgress &gt; .shape {fill :#A9E4F7;} .node.state.Container.Cancelled &gt; .shape {fill: #EEEEEE;} marker {fill: #555555;} .node.anchor,.node.state.NotYetStarted {cursor: default;} .node.state {cursor: pointer;} tspan .label {font-weight: normal;font-size: 12px;text-shadow: none;} </style></svg>