<!DOCTYPE svg PUBLIC "-//W3C//DTD SVG 1.1//EN" "https://www.w3.org/Graphics/SVG/1.1/DTD/svg11.dtd"><svg xmlns="http://www.w3.org/2000/svg" id="sfn-svg" class="sfn-workflow-graph" width="444" height="574">
    
    
<g transform="translate(12,19.599998474121094)"><g class="nodes"><g class="node-container" transform="translate(229.99999809265137,18.800000190734863)"><g class="node anchor"><circle class="shape" x="-16.399999618530273" y="-8.800000190734863" r="26.399999618530273"/><text class="label"><tspan xml:space="preserve" text-anchor="middle" alignment-baseline="central">Start</tspan></text></g></g><g class="node-container" transform="translate(229.99999809265137,519.6000032424927)"><g class="node anchor"><circle class="shape" x="-12.800000190734863" y="-8.800000190734863" r="22.800000190734863"/><text class="label"><tspan xml:space="preserve" text-anchor="middle" alignment-baseline="central">End</tspan></text></g></g><g class="node-container" transform="translate(229.99999809265137,81.40000057220459)"><g class="node state Task NotYetStarted"><rect class="shape" rx="5" ry="5" x="-51.20000076293945" y="-18.800000190734863" width="102.4000015258789" height="37.60000038146973"/><text class="label"><tspan xml:space="preserve" text-anchor="middle" alignment-baseline="central">ListAccounts</tspan></text></g></g><g class="node-container" transform="translate(229.99999809265137,144.00000095367432)"><g class="node state Pass NotYetStarted"><rect class="shape" rx="5" ry="5" x="-85.5999984741211" y="-18.800000190734863" width="171.1999969482422" height="37.60000038146973"/><text class="label"><tspan xml:space="preserve" text-anchor="middle" alignment-baseline="central">Check if Account exists</tspan></text></g></g><g class="node-container" transform="translate(229.99999809265137,206.60000133514404)"><g class="node state Choice NotYetStarted"><rect class="shape" rx="5" ry="5" x="-78.4000015258789" y="-18.800000190734863" width="156.8000030517578" height="37.60000038146973"/><text class="label"><tspan xml:space="preserve" text-anchor="middle" alignment-baseline="central">Act based on Results</tspan></text></g></g><g class="node-container" transform="translate(117.5999984741211,394.4000024795532)"><g class="node state Task NotYetStarted"><rect class="shape" rx="5" ry="5" x="-117.5999984741211" y="-18.800000190734863" width="235.1999969482422" height="37.60000038146973"/><text class="label"><tspan xml:space="preserve" text-anchor="middle" alignment-baseline="central">Continue to Create New Account</tspan></text></g></g><g class="node-container" transform="translate(327.39999771118164,269.20000171661377)"><g class="node state Task NotYetStarted"><rect class="shape" rx="5" ry="5" x="-64.79999923706055" y="-18.800000190734863" width="129.5999984741211" height="37.60000038146973"/><text class="label"><tspan xml:space="preserve" text-anchor="middle" alignment-baseline="central">DescribeAccount</tspan></text></g></g><g class="node-container" transform="translate(327.39999771118164,331.8000020980835)"><g class="node state Choice NotYetStarted"><rect class="shape" rx="5" ry="5" x="-80.4000015258789" y="-18.800000190734863" width="160.8000030517578" height="37.60000038146973"/><text class="label"><tspan xml:space="preserve" text-anchor="middle" alignment-baseline="central">Check Account Status</tspan></text></g></g><g class="node-container" transform="translate(342.39999771118164,394.4000024795532)"><g class="node state Pass NotYetStarted"><rect class="shape" rx="5" ry="5" x="-67.20000076293945" y="-18.800000190734863" width="134.4000015258789" height="37.60000038146973"/><text class="label"><tspan xml:space="preserve" text-anchor="middle" alignment-baseline="central">Send Notification</tspan></text></g></g><g class="node-container" transform="translate(342.39999771118164,457.00000286102295)"><g class="node state Task NotYetStarted"><rect class="shape" rx="5" ry="5" x="-77.5999984741211" y="-18.800000190734863" width="155.1999969482422" height="37.60000038146973"/><text class="label"><tspan xml:space="preserve" text-anchor="middle" alignment-baseline="central">Send Account Status</tspan></text></g></g></g><g class="edges"><g class="edge"><path class="path" marker-end="url(#arrowhead12)" d="M229.99999809265137,100.20000076293945L229.99999809265137,102.28333409627277C229.99999809265137,104.36666742960611,229.99999809265137,108.53333409627277,229.99999809265137,112.70000076293944C229.99999809265137,116.86666742960611,229.99999809265137,121.03333409627278,229.99999809265137,123.11666742960611L229.99999809265137,125.20000076293945" style="fill: none;"/><defs><marker id="arrowhead12" viewBox="0 0 10 10" refX="9" refY="5" markerUnits="strokeWidth" markerWidth="8" markerHeight="6" orient="auto"><path d="M 0 0 L 10 5 L 0 10 z"/></marker></defs></g><g class="edge"><path class="path" marker-end="url(#arrowhead13)" d="M229.99999809265137,45.19999980926514L229.99999809265137,46.01666657129923C229.99999809265137,46.83333333333333,229.99999809265137,48.46666685740153,229.99999809265137,51.36666695276896C229.99999809265137,54.26666704813639,229.99999809265137,58.433333714803055,229.99999809265137,60.51666704813639L229.99999809265137,62.60000038146973" style="fill: none;"/><defs><marker id="arrowhead13" viewBox="0 0 10 10" refX="9" refY="5" markerUnits="strokeWidth" markerWidth="8" markerHeight="6" orient="auto"><path d="M 0 0 L 10 5 L 0 10 z"/></marker></defs></g><g class="edge"><path class="path" marker-end="url(#arrowhead14)" d="M229.99999809265137,162.80000114440918L229.99999809265137,164.8833344777425C229.99999809265137,166.96666781107584,229.99999809265137,171.1333344777425,229.99999809265137,175.30000114440918C229.99999809265137,179.46666781107584,229.99999809265137,183.6333344777425,229.99999809265137,185.71666781107584L229.99999809265137,187.80000114440918" style="fill: none;"/><defs><marker id="arrowhead14" viewBox="0 0 10 10" refX="9" refY="5" markerUnits="strokeWidth" markerWidth="8" markerHeight="6" orient="auto"><path d="M 0 0 L 10 5 L 0 10 z"/></marker></defs></g><g class="edge"><path class="path" marker-end="url(#arrowhead15)" d="M153.478592260936,225.4000015258789L144.9988266298002,227.4833348592122C136.51906099866437,229.56666819254554,119.55952973639273,233.73333485921222,111.0797641052569,241.03333489100137C102.5999984741211,248.33333492279053,102.5999984741211,258.76666831970215,102.59999847412108,269.20000171661377C102.5999984741211,279.6333351135254,102.5999984741211,290.066668510437,102.59999847412108,300.50000190734863C102.5999984741211,310.93333530426025,102.5999984741211,321.3666687011719,102.59999847412108,331.8000020980835C102.5999984741211,342.2333354949951,102.5999984741211,352.66666889190674,103.59840102394759,359.96666892369586C104.59680357377411,367.266668955485,106.59360867342713,371.4333356221517,107.59201122325365,373.51666895548504L108.59041377308017,375.60000228881836" style="fill: none;"/><defs><marker id="arrowhead15" viewBox="0 0 10 10" refX="9" refY="5" markerUnits="strokeWidth" markerWidth="8" markerHeight="6" orient="auto"><path d="M 0 0 L 10 5 L 0 10 z"/></marker></defs></g><g class="edge"><path class="path" marker-end="url(#arrowhead16)" d="M288.5022345222849,225.4000015258789L294.98519505376765,227.4833348592122C301.46815558525043,229.56666819254554,314.43407664821603,233.73333485921222,320.91703717969887,237.9000015258789C327.39999771118164,242.06666819254556,327.39999771118164,246.23333485921222,327.39999771118164,248.31666819254556L327.39999771118164,250.4000015258789" style="fill: none;"/><defs><marker id="arrowhead16" viewBox="0 0 10 10" refX="9" refY="5" markerUnits="strokeWidth" markerWidth="8" markerHeight="6" orient="auto"><path d="M 0 0 L 10 5 L 0 10 z"/></marker></defs></g><g class="edge"><path class="path" marker-end="url(#arrowhead17)" d="M327.39999771118164,288.00000190734863L327.39999771118164,290.08333524068195C327.39999771118164,292.16666857401526,327.39999771118164,296.33333524068195,327.39999771118164,300.50000190734863C327.39999771118164,304.66666857401526,327.39999771118164,308.83333524068195,327.39999771118164,310.9166685740153L327.39999771118164,313.00000190734863" style="fill: none;"/><defs><marker id="arrowhead17" viewBox="0 0 10 10" refX="9" refY="5" markerUnits="strokeWidth" markerWidth="8" markerHeight="6" orient="auto"><path d="M 0 0 L 10 5 L 0 10 z"/></marker></defs></g><g class="edge"><path class="path" marker-end="url(#arrowhead18)" d="M336.40958241222256,350.60000228881836L337.40798496204906,352.6833356221517C338.40638751187555,354.766668955485,340.4031926115286,358.9333356221517,341.40159516135515,363.10000228881836C342.39999771118164,367.266668955485,342.39999771118164,371.4333356221517,342.39999771118164,373.51666895548504L342.39999771118164,375.60000228881836" style="fill: none;"/><defs><marker id="arrowhead18" viewBox="0 0 10 10" refX="9" refY="5" markerUnits="strokeWidth" markerWidth="8" markerHeight="6" orient="auto"><path d="M 0 0 L 10 5 L 0 10 z"/></marker></defs></g><g class="edge"><path class="path" marker-end="url(#arrowhead19)" d="M259.8881765805072,350.60000228881836L252.40681349919788,352.6833356221517C244.92545041788858,354.766668955485,229.96272425526996,358.9333356221517,215.99840064247786,363.10000228881836C202.03407702968576,367.266668955485,189.06815596672018,371.4333356221517,182.58519543523738,373.51666895548504L176.1022349037546,375.60000228881836" style="fill: none;"/><defs><marker id="arrowhead19" viewBox="0 0 10 10" refX="9" refY="5" markerUnits="strokeWidth" markerWidth="8" markerHeight="6" orient="auto"><path d="M 0 0 L 10 5 L 0 10 z"/></marker></defs></g><g class="edge"><path class="path" marker-end="url(#arrowhead20)" d="M117.5999984741211,413.2000026702881L117.59999847412108,415.28333600362134C117.5999984741211,417.3666693369547,117.5999984741211,421.53333600362134,117.59999847412108,428.8333360354105C117.5999984741211,436.13333606719965,117.5999984741211,446.56666946411127,117.59999847412108,457.00000286102284C117.5999984741211,467.4333362579345,117.5999984741211,477.86666965484613,132.67261765338816,487.28060490122954C147.74523683265522,496.694540147613,177.89047519118938,505.08907724346824,192.96309437045647,509.28634579139583L208.03571354972354,513.4836143393235" style="fill: none;"/><defs><marker id="arrowhead20" viewBox="0 0 10 10" refX="9" refY="5" markerUnits="strokeWidth" markerWidth="8" markerHeight="6" orient="auto"><path d="M 0 0 L 10 5 L 0 10 z"/></marker></defs></g><g class="edge"><path class="path" marker-end="url(#arrowhead21)" d="M342.39999771118164,413.2000026702881L342.39999771118164,415.28333600362134C342.39999771118164,417.3666693369547,342.39999771118164,421.53333600362134,342.39999771118164,425.70000267028803C342.39999771118164,429.8666693369547,342.39999771118164,434.0333360036214,342.39999771118164,436.1166693369547L342.39999771118164,438.2000026702881" style="fill: none;"/><defs><marker id="arrowhead21" viewBox="0 0 10 10" refX="9" refY="5" markerUnits="strokeWidth" markerWidth="8" markerHeight="6" orient="auto"><path d="M 0 0 L 10 5 L 0 10 z"/></marker></defs></g><g class="edge"><path class="path" marker-end="url(#arrowhead22)" d="M342.39999771118164,475.8000030517578L342.39999771118164,477.88333638509107C342.39999771118164,479.96666971842444,342.39999771118164,484.13333638509107,327.3273785319145,490.41393826635203C312.2547593526475,496.694540147613,282.1095209941133,505.08907724346824,267.03690181484626,509.28634579139583L251.9642826355792,513.4836143393235" style="fill: none;"/><defs><marker id="arrowhead22" viewBox="0 0 10 10" refX="9" refY="5" markerUnits="strokeWidth" markerWidth="8" markerHeight="6" orient="auto"><path d="M 0 0 L 10 5 L 0 10 z"/></marker></defs></g></g></g><style xmlns="http://www.w3.org/1999/xhtml">.node &gt; .shape {stroke: #555555;stroke-width: 0.6px;fill: #FFFFFF;} path {stroke: #555;background-color: #555;stroke-width: 1px;} .node.state.NotYetStarted &gt; .shape,.node.state.Container &gt; .shape {stroke-dasharray: 5 2;} .node.state.Failed &gt; .shape,rect.legend.Failed {fill: #DE322F;} .node.state.CaughtError &gt; .shape,rect.legend.CaughtError {fill: #FFA500;} .node.state.Succeeded &gt; .shape,rect.legend.Succeeded {fill: #2BD62E;} .node.state.InProgress &gt; .shape,rect.legend.InProgress {fill: #53c9ed;} .node.state.Cancelled &gt; .shape,rect.legend.Cancelled {fill: #dddddd;} .node.anchor &gt; .shape {fill: #FFDA75;} .node.state.hovered:not(.selected):not(.NotYetStarted) &gt; .shape,.node.selected &gt; .shape {stroke: #555555;stroke-width: 2px;} .node.state.Container.Failed &gt; .shape {fill: #EE9592;} .node.state.Container.CaughtError &gt; .shape {fill: #FFD27F;} .node.state.Container.Succeeded &gt; .shape {fill: #91EA9A;} .node.state.Container.InProgress &gt; .shape {fill :#A9E4F7;} .node.state.Container.Cancelled &gt; .shape {fill: #EEEEEE;} marker {fill: #555555;} .node.anchor,.node.state.NotYetStarted {cursor: default;} .node.state {cursor: pointer;} tspan .label {font-weight: normal;font-size: 12px;text-shadow: none;} </style></svg>